<?xml version="1.0" encoding="UTF-8" standalone="no"?>
<!-- Created with Inkscape (http://www.inkscape.org/) -->

<svg
   xmlns:dc="http://purl.org/dc/elements/1.1/"
   xmlns:cc="http://creativecommons.org/ns#"
   xmlns:rdf="http://www.w3.org/1999/02/22-rdf-syntax-ns#"
   xmlns:svg="http://www.w3.org/2000/svg"
   xmlns="http://www.w3.org/2000/svg"
   xmlns:sodipodi="http://sodipodi.sourceforge.net/DTD/sodipodi-0.dtd"
   xmlns:inkscape="http://www.inkscape.org/namespaces/inkscape"
   width="373.5433"
   height="283.41516"
   id="svg2"
   version="1.1"
   inkscape:version="0.48.4 r9939"
   sodipodi:docname="New document 1">
  <defs
     id="defs4" />
  <sodipodi:namedview
     id="base"
     pagecolor="#ffffff"
     bordercolor="#666666"
     borderopacity="1.0"
     inkscape:pageopacity="0.0"
     inkscape:pageshadow="2"
     inkscape:zoom="1.4"
     inkscape:cx="290.56296"
     inkscape:cy="154.59662"
     inkscape:document-units="px"
     inkscape:current-layer="g3787"
     showgrid="false"
     inkscape:snap-smooth-nodes="true"
     inkscape:snap-midpoints="false"
     inkscape:object-paths="true"
     inkscape:snap-intersection-paths="true"
     inkscape:object-nodes="true"
     fit-margin-top="0"
     fit-margin-left="0"
     fit-margin-right="0"
     fit-margin-bottom="0"
     inkscape:window-width="1920"
     inkscape:window-height="1021"
     inkscape:window-x="0"
     inkscape:window-y="27"
     inkscape:window-maximized="1" />
  <metadata
     id="metadata7">
    <rdf:RDF>
      <cc:Work
         rdf:about="">
        <dc:format>image/svg+xml</dc:format>
        <dc:type
           rdf:resource="http://purl.org/dc/dcmitype/StillImage" />
        <dc:title></dc:title>
      </cc:Work>
    </rdf:RDF>
  </metadata>
  <g
     inkscape:label="Layer 1"
     inkscape:groupmode="layer"
     id="layer1"
     transform="translate(-92.995517,-200.71844)">
    <g
       id="g3775">
      <g
         id="g3781"
         transform="translate(-7.1428572,-227.14286)">
        <text
           xml:space="preserve"
           style="font-size:156.89555359px;font-style:normal;font-weight:normal;line-height:125%;letter-spacing:0px;word-spacing:0px;fill:#000000;fill-opacity:1;stroke:none;font-family:Sans"
           x="82.901314"
           y="546.91193"
           id="text3763"
           sodipodi:linespacing="125%"><tspan
             sodipodi:role="line"
             id="tspan3765"
             x="82.901314"
             y="546.91193">1.8(</tspan></text>
        <path
           sodipodi:type="arc"
           style="fill:#000000;fill-opacity:1;stroke:#000000;stroke-width:3;stroke-miterlimit:4;stroke-opacity:1;stroke-dasharray:none;stroke-dashoffset:0"
           id="path3771"
           sodipodi:cx="179.15263"
           sodipodi:cy="355.71255"
           sodipodi:rx="6.9216232"
           sodipodi:ry="6.9216232"
           d="m 186.07426,355.71255 c 0,3.82271 -3.09892,6.92163 -6.92163,6.92163 -3.8227,0 -6.92162,-3.09892 -6.92162,-6.92163 0,-3.8227 3.09892,-6.92162 6.92162,-6.92162 3.81628,0 6.91253,3.08889 6.92161,6.90516"
           sodipodi:start="0"
           sodipodi:end="6.280806"
           sodipodi:open="true"
           transform="translate(121.41465,167.80038)" />
        <path
           sodipodi:open="true"
           sodipodi:end="6.280806"
           sodipodi:start="0"
           d="m 186.07426,355.71255 c 0,3.82271 -3.09892,6.92163 -6.92163,6.92163 -3.8227,0 -6.92162,-3.09892 -6.92162,-6.92163 0,-3.8227 3.09892,-6.92162 6.92162,-6.92162 3.81628,0 6.91253,3.08889 6.92161,6.90516"
           sodipodi:ry="6.9216232"
           sodipodi:rx="6.9216232"
           sodipodi:cy="355.71255"
           sodipodi:cx="179.15263"
           id="path3773"
           style="fill:#000000;fill-opacity:1;stroke:#000000;stroke-width:3;stroke-miterlimit:4;stroke-opacity:1;stroke-dasharray:none;stroke-dashoffset:0"
           sodipodi:type="arc"
           transform="translate(119.39434,117.90308)" />
      </g>
      <g
         transform="translate(205.71429,-59.285717)"
         id="g3787">
        <g
           id="g3833"
           transform="translate(-60.714286,-5.7142857)">
          <text
             xml:space="preserve"
             style="font-size:156.89555359px;font-style:normal;font-weight:normal;line-height:125%;letter-spacing:0px;word-spacing:0px;fill:#000000;fill-opacity:1;stroke:none;font-family:Sans"
             x="82.901314"
             y="546.91193"
             id="text3789"
             sodipodi:linespacing="125%"><tspan
               sodipodi:role="line"
               id="tspan3791"
               x="82.901314"
               y="546.91193">1.9</tspan></text>
          <path
             sodipodi:open="true"
             sodipodi:end="6.280806"
             sodipodi:start="0"
             d="m 186.07426,355.71255 c 0,3.82271 -3.09892,6.92163 -6.92163,6.92163 -3.8227,0 -6.92162,-3.09892 -6.92162,-6.92163 0,-3.8227 3.09892,-6.92162 6.92162,-6.92162 3.81628,0 6.91253,3.08889 6.92161,6.90516"
             sodipodi:ry="6.9216232"
             sodipodi:rx="6.9216232"
             sodipodi:cy="355.71255"
             sodipodi:cx="179.15263"
             id="path3795"
             style="fill:#000000;fill-opacity:1;stroke:#000000;stroke-width:3;stroke-miterlimit:4;stroke-opacity:1;stroke-dasharray:none;stroke-dashoffset:0"
             sodipodi:type="arc"
             transform="translate(87.890263,101.37931)" />
          <path
             inkscape:connector-curvature="0"
             id="path3797"
             d="m 259.88378,503.44537 0,0 0,0 0,10.20431"
             style="fill:none;stroke:#000000;stroke-width:1px;stroke-linecap:round;stroke-linejoin:miter;stroke-opacity:1" />
          <path
             style="fill:none;stroke:#000000;stroke-width:1px;stroke-linecap:round;stroke-linejoin:miter;stroke-opacity:1"
             d="m 266.42303,506.2596 0,0 0,0 0,10.20431"
             id="path3799"
             inkscape:connector-curvature="0" />
          <path
             inkscape:connector-curvature="0"
             id="path3801"
             d="m 274.32272,507.86666 0,0 0,0 0,10.20431"
             style="fill:none;stroke:#000000;stroke-width:1px;stroke-linecap:round;stroke-linejoin:miter;stroke-opacity:1" />
          <path
             style="fill:none;stroke:#000000;stroke-width:1px;stroke-linecap:round;stroke-linejoin:miter;stroke-opacity:1"
             d="m 280.86069,508.13269 0,0 0,0 0,10.20431"
             id="path3803"
             inkscape:connector-curvature="0" />
          <path
             inkscape:connector-curvature="0"
             id="path3805"
             d="m 286.35413,507.55015 0,0 0,0 0,10.20431"
             style="fill:none;stroke:#000000;stroke-width:1px;stroke-linecap:round;stroke-linejoin:miter;stroke-opacity:1" />
          <path
             style="fill:none;stroke:#000000;stroke-width:1px;stroke-linecap:round;stroke-linejoin:miter;stroke-opacity:1"
             d="m 292.36002,505.78512 0,0 0,0 0,10.20431"
             id="path3807"
             inkscape:connector-curvature="0" />
          <path
             inkscape:connector-curvature="0"
             id="path3809"
             d="m 297.74011,502.94065 0,0 0,0 0,10.20431"
             style="fill:none;stroke:#000000;stroke-width:1px;stroke-linecap:round;stroke-linejoin:miter;stroke-opacity:1" />
          <path
             style="fill:none;stroke:#000000;stroke-width:1px;stroke-linecap:round;stroke-linejoin:miter;stroke-opacity:1"
             d="m 304.66319,496.79475 0,0 0,0 0,10.20431"
             id="path3811"
             inkscape:connector-curvature="0" />
          <path
             transform="translate(-205.71429,59.285717)"
             inkscape:connector-curvature="0"
             id="path3813"
             d="m 465.59807,454.36396 6.53925,2.81423 7.89969,1.60706 6.53797,0.26603 5.49344,-0.58254 6.00589,-1.76503 5.38009,-2.84447 6.92308,-6.14592"
             style="fill:none;stroke:#000000;stroke-width:1px;stroke-linecap:round;stroke-linejoin:miter;stroke-opacity:1" />
          <path
             inkscape:connector-curvature="0"
             id="path3815"
             d="m 261.61532,524.40887 0,0 0,0 0,10.20431"
             style="fill:none;stroke:#000000;stroke-width:1px;stroke-linecap:round;stroke-linejoin:miter;stroke-opacity:1" />
          <path
             style="fill:none;stroke:#000000;stroke-width:1px;stroke-linecap:round;stroke-linejoin:miter;stroke-opacity:1"
             d="m 267.87684,525.56327 0,0 0,0 0,10.20431"
             id="path3817"
             inkscape:connector-curvature="0" />
          <path
             inkscape:connector-curvature="0"
             id="path3819"
             d="m 274.85092,525.8855 0,0 0,0 0,10.20431"
             style="fill:none;stroke:#000000;stroke-width:1px;stroke-linecap:round;stroke-linejoin:miter;stroke-opacity:1" />
          <path
             style="fill:none;stroke:#000000;stroke-width:1px;stroke-linecap:round;stroke-linejoin:miter;stroke-opacity:1"
             d="m 281.99392,524.99328 0,0 0,0 0,10.20431"
             id="path3821"
             inkscape:connector-curvature="0" />
          <path
             inkscape:connector-curvature="0"
             id="path3823"
             d="m 289.86684,525.27635 0,0 0,0 0,6.79226"
             style="fill:none;stroke:#000000;stroke-width:1px;stroke-linecap:round;stroke-linejoin:miter;stroke-opacity:1" />
          <path
             style="fill:none;stroke:#000000;stroke-width:1px;stroke-linecap:round;stroke-linejoin:miter;stroke-opacity:1"
             d="m 294.13308,522.05297 0,0 0,0 0,6.79226"
             id="path3825"
             inkscape:connector-curvature="0" />
          <path
             inkscape:connector-curvature="0"
             id="path3827"
             d="m 298.75331,516.36216 0,0 0,0 0,6.79226"
             style="fill:none;stroke:#000000;stroke-width:1px;stroke-linecap:round;stroke-linejoin:miter;stroke-opacity:1" />
          <path
             style="fill:none;stroke:#000000;stroke-width:1px;stroke-linecap:round;stroke-linejoin:miter;stroke-opacity:1"
             d="m 301.32242,511.41608 0,0 0,0 0,6.79226"
             id="path3829"
             inkscape:connector-curvature="0" />
          <path
             transform="translate(-205.71429,59.285717)"
             inkscape:connector-curvature="0"
             id="path3831"
             d="m 467.32961,465.12315 6.26152,1.1544 6.97408,0.32223 7.143,-0.89222 7.87292,0.28307 4.26624,-3.22338 4.62023,-5.69081 2.56911,-4.94608 3.34077,-4.41704"
             style="fill:none;stroke:#000000;stroke-width:1px;stroke-linecap:butt;stroke-linejoin:miter;stroke-opacity:1" />
        </g>
      </g>
    </g>
  </g>
</svg>
