<?xml version="1.0" encoding="UTF-8" standalone="no"?>
<!-- Created with Inkscape (http://www.inkscape.org/) -->

<svg
   xmlns:dc="http://purl.org/dc/elements/1.1/"
   xmlns:cc="http://creativecommons.org/ns#"
   xmlns:rdf="http://www.w3.org/1999/02/22-rdf-syntax-ns#"
   xmlns:svg="http://www.w3.org/2000/svg"
   xmlns="http://www.w3.org/2000/svg"
   xmlns:xlink="http://www.w3.org/1999/xlink"
   xmlns:sodipodi="http://sodipodi.sourceforge.net/DTD/sodipodi-0.dtd"
   xmlns:inkscape="http://www.inkscape.org/namespaces/inkscape"
   width="877.5"
   height="885.4375"
   id="svg2"
   version="1.1"
   inkscape:version="0.48.3.1 r9886"
   sodipodi:docname="Encoding-Possibilities.svg">
  <defs
     id="defs4" />
  <sodipodi:namedview
     id="base"
     pagecolor="#ffffff"
     bordercolor="#666666"
     borderopacity="1.0"
     inkscape:pageopacity="0.0"
     inkscape:pageshadow="2"
     inkscape:zoom="0.69999999"
     inkscape:cx="-125.02293"
     inkscape:cy="414.30493"
     inkscape:document-units="px"
     inkscape:current-layer="layer1"
     showgrid="false"
     fit-margin-top="10"
     fit-margin-left="10"
     fit-margin-right="10"
     fit-margin-bottom="10"
     inkscape:window-width="1920"
     inkscape:window-height="1021"
     inkscape:window-x="0"
     inkscape:window-y="27"
     inkscape:window-maximized="1" />
  <metadata
     id="metadata7">
    <rdf:RDF>
      <cc:Work
         rdf:about="">
        <dc:format>image/svg+xml</dc:format>
        <dc:type
           rdf:resource="http://purl.org/dc/dcmitype/StillImage" />
        <dc:title></dc:title>
      </cc:Work>
    </rdf:RDF>
  </metadata>
  <g
     inkscape:label="Layer 1"
     inkscape:groupmode="layer"
     id="layer1"
     transform="translate(-58.5625,237.8125)">
    <g
       id="g3799">
      <text
         sodipodi:linespacing="125%"
         id="text3757"
         y="190.93361"
         x="61.42857"
         style="font-size:40px;font-style:normal;font-weight:normal;line-height:125%;letter-spacing:0px;word-spacing:0px;fill:#000000;fill-opacity:1;stroke:none;font-family:Sans"
         xml:space="preserve"><tspan
           y="190.93361"
           x="61.42857"
           id="tspan3759"
           sodipodi:role="line">Ruby-Strategy</tspan></text>
      <text
         sodipodi:linespacing="125%"
         id="text3761"
         y="249.26697"
         x="62.717632"
         style="font-size:40px;font-style:normal;font-weight:normal;line-height:125%;letter-spacing:0px;word-spacing:0px;fill:#000000;fill-opacity:1;stroke:none;font-family:Sans"
         xml:space="preserve"><tspan
           y="249.26697"
           x="62.717632"
           id="tspan3763"
           sodipodi:role="line">Smalltalk-Strategy</tspan></text>
      <text
         sodipodi:linespacing="125%"
         id="text3765"
         y="311.47723"
         x="61.42857"
         style="font-size:40px;font-style:normal;font-weight:normal;line-height:125%;letter-spacing:0px;word-spacing:0px;fill:#000000;fill-opacity:1;stroke:none;font-family:Sans"
         xml:space="preserve"><tspan
           y="311.47723"
           x="61.42857"
           id="tspan3767"
           sodipodi:role="line">Inheritence</tspan></text>
      <text
         sodipodi:linespacing="125%"
         id="text3769"
         y="365.93356"
         x="61.42857"
         style="font-size:40px;font-style:normal;font-weight:normal;line-height:125%;letter-spacing:0px;word-spacing:0px;fill:#000000;fill-opacity:1;stroke:none;font-family:Sans"
         xml:space="preserve"><tspan
           y="365.93356"
           x="61.42857"
           id="tspan3771"
           sodipodi:role="line">Inheritence-Strategy</tspan></text>
      <text
         sodipodi:linespacing="125%"
         id="text3773"
         y="424.26694"
         x="61.42857"
         style="font-size:40px;font-style:normal;font-weight:normal;line-height:125%;letter-spacing:0px;word-spacing:0px;fill:#000000;fill-opacity:1;stroke:none;font-family:Sans"
         xml:space="preserve"><tspan
           y="424.26694"
           x="61.42857"
           id="tspan3775"
           sodipodi:role="line">Lib-ICU-RubyString</tspan></text>
      <text
         sodipodi:linespacing="125%"
         id="text3777"
         y="482.60028"
         x="61.721539"
         style="font-size:40px;font-style:normal;font-weight:normal;line-height:125%;letter-spacing:0px;word-spacing:0px;fill:#000000;fill-opacity:1;stroke:none;font-family:Sans"
         xml:space="preserve"><tspan
           y="482.60028"
           x="61.721539"
           id="tspan3779"
           sodipodi:role="line">plain ASCII</tspan></text>
      <text
         sodipodi:linespacing="125%"
         id="text3781"
         y="540.93359"
         x="61.721539"
         style="font-size:40px;font-style:normal;font-weight:normal;line-height:125%;letter-spacing:0px;word-spacing:0px;fill:#000000;fill-opacity:1;stroke:none;font-family:Sans"
         xml:space="preserve"><tspan
           y="540.93359"
           x="61.721539"
           id="tspan3783"
           sodipodi:role="line">plain UTF-8</tspan></text>
    </g>
    <g
       id="g3815">
      <path
         inkscape:connector-curvature="0"
         id="path3755"
         d="m 68.570812,151.15741 857.488388,0"
         style="fill:none;stroke:#000000;stroke-width:2.9941318px;stroke-linecap:butt;stroke-linejoin:miter;stroke-opacity:1" />
      <path
         style="fill:none;stroke:#000000;stroke-width:2.9941318px;stroke-linecap:butt;stroke-linejoin:miter;stroke-opacity:1"
         d="m 68.570812,209.44631 857.488388,0"
         id="path3785"
         inkscape:connector-curvature="0" />
      <path
         inkscape:connector-curvature="0"
         id="path3787"
         d="m 68.570812,267.73519 857.488388,0"
         style="fill:none;stroke:#000000;stroke-width:2.9941318px;stroke-linecap:butt;stroke-linejoin:miter;stroke-opacity:1" />
      <path
         style="fill:none;stroke:#000000;stroke-width:2.9941318px;stroke-linecap:butt;stroke-linejoin:miter;stroke-opacity:1"
         d="m 68.570812,326.0241 857.488388,0"
         id="path3789"
         inkscape:connector-curvature="0" />
      <path
         inkscape:connector-curvature="0"
         id="path3791"
         d="m 68.570812,384.31298 857.488388,0"
         style="fill:none;stroke:#000000;stroke-width:2.9941318px;stroke-linecap:butt;stroke-linejoin:miter;stroke-opacity:1" />
      <path
         style="fill:none;stroke:#000000;stroke-width:2.9941318px;stroke-linecap:butt;stroke-linejoin:miter;stroke-opacity:1"
         d="m 68.570812,442.60188 857.488388,0"
         id="path3793"
         inkscape:connector-curvature="0" />
      <path
         inkscape:connector-curvature="0"
         id="path3795"
         d="m 68.570812,500.89077 857.488388,0"
         style="fill:none;stroke:#000000;stroke-width:2.9941318px;stroke-linecap:butt;stroke-linejoin:miter;stroke-opacity:1" />
      <path
         style="fill:none;stroke:#000000;stroke-width:2.9941318px;stroke-linecap:butt;stroke-linejoin:miter;stroke-opacity:1"
         d="m 68.570827,559.17967 857.488373,0"
         id="path3797"
         inkscape:connector-curvature="0" />
      <path
         style="fill:none;stroke:#000000;stroke-width:3.00801635px;stroke-linecap:butt;stroke-linejoin:miter;stroke-opacity:1"
         d="m 791.67857,637.63171 0,-865.45952"
         id="path3857"
         inkscape:connector-curvature="0" />
      <path
         inkscape:connector-curvature="0"
         id="path3879"
         d="m 734.50388,637.63171 0,-865.45952"
         style="fill:none;stroke:#000000;stroke-width:3.00801635px;stroke-linecap:butt;stroke-linejoin:miter;stroke-opacity:1" />
      <path
         inkscape:connector-curvature="0"
         id="path3883"
         d="m 677.32927,637.63171 0,-865.45952"
         style="fill:none;stroke:#000000;stroke-width:3.00801635px;stroke-linecap:butt;stroke-linejoin:miter;stroke-opacity:1" />
      <path
         style="fill:none;stroke:#000000;stroke-width:3.00801635px;stroke-linecap:butt;stroke-linejoin:miter;stroke-opacity:1"
         d="m 620.15464,637.63171 0,-865.45952"
         id="path3885"
         inkscape:connector-curvature="0" />
      <path
         inkscape:connector-curvature="0"
         id="path3887"
         d="m 562.98002,637.63171 0,-865.45952"
         style="fill:none;stroke:#000000;stroke-width:3.00801635px;stroke-linecap:butt;stroke-linejoin:miter;stroke-opacity:1" />
      <path
         style="fill:none;stroke:#000000;stroke-width:3.00801635px;stroke-linecap:butt;stroke-linejoin:miter;stroke-opacity:1"
         d="m 848.85319,637.63171 0,-865.45952"
         id="path3889"
         inkscape:connector-curvature="0" />
    </g>
    <g
       id="g3845"
       transform="matrix(0,1,-1,0,560.84712,-762.97696)">
      <text
         sodipodi:linespacing="125%"
         id="text3825"
         y="-244.78069"
         x="531.42859"
         style="font-size:40px;font-style:normal;font-weight:normal;line-height:125%;letter-spacing:0px;word-spacing:0px;fill:#000000;fill-opacity:1;stroke:none;font-family:Sans"
         xml:space="preserve"><tspan
           y="-244.78069"
           x="531.42859"
           id="tspan3827"
           sodipodi:role="line">Subclassable</tspan></text>
      <text
         sodipodi:linespacing="125%"
         id="text3829"
         y="-191.61699"
         x="530.13953"
         style="font-size:40px;font-style:normal;font-weight:normal;line-height:125%;letter-spacing:0px;word-spacing:0px;fill:#000000;fill-opacity:1;stroke:none;font-family:Sans"
         xml:space="preserve"><tspan
           y="-191.61699"
           x="530.13953"
           id="tspan3831"
           sodipodi:role="line">Preserve Identity</tspan></text>
      <text
         sodipodi:linespacing="125%"
         id="text3833"
         y="-131.05089"
         x="530.13953"
         style="font-size:40px;font-style:normal;font-weight:normal;line-height:125%;letter-spacing:0px;word-spacing:0px;fill:#000000;fill-opacity:1;stroke:none;font-family:Sans"
         xml:space="preserve"><tspan
           y="-131.05089"
           x="530.13953"
           id="tspan3835"
           sodipodi:role="line">Pass to St or C</tspan></text>
      <text
         sodipodi:linespacing="125%"
         id="text3837"
         y="-77.535698"
         x="533.75281"
         style="font-size:40px;font-style:normal;font-weight:normal;line-height:125%;letter-spacing:0px;word-spacing:0px;fill:#000000;fill-opacity:1;stroke:none;font-family:Sans"
         xml:space="preserve"><tspan
           y="-77.535698"
           x="533.75281"
           id="tspan3839"
           sodipodi:role="line">Variable Encoding</tspan></text>
      <text
         sodipodi:linespacing="125%"
         id="text3841"
         y="-20.494961"
         x="530.13953"
         style="font-size:40px;font-style:normal;font-weight:normal;line-height:125%;letter-spacing:0px;word-spacing:0px;fill:#000000;fill-opacity:1;stroke:none;font-family:Sans"
         xml:space="preserve"><tspan
           y="-20.494961"
           x="530.13953"
           id="tspan3843"
           sodipodi:role="line">Efficiency</tspan></text>
    </g>
    <path
       sodipodi:nodetypes="czczc"
       inkscape:connector-curvature="0"
       id="use3939"
       d="m 574.66768,186.06467 c 0,0 8.55771,9.19567 16.71795,-1.35364 8.16022,-10.54933 15.57146,-27.81462 15.57146,-27.81462 0,0 -3.30172,35.52504 -15.48959,42.49968 -12.18789,6.97464 -16.79982,-13.33142 -16.79982,-13.33142 z"
       style="fill:#24820a;fill-opacity:1;stroke:none" />
    <use
       x="0"
       y="0"
       xlink:href="#use3939"
       id="use3941"
       transform="translate(58.139204,0)"
       width="877.5"
       height="885.4375" />
    <use
       x="0"
       y="0"
       xlink:href="#use3941"
       id="use3943"
       transform="translate(112.28571,0)"
       width="877.5"
       height="885.4375" />
    <use
       x="0"
       y="0"
       xlink:href="#use3943"
       id="use3945"
       transform="translate(57.857139,0)"
       width="877.5"
       height="885.4375" />
    <path
       sodipodi:nodetypes="czczc"
       inkscape:connector-curvature="0"
       id="use3949"
       d="m 632.80689,243.20753 c 0,0 8.55771,9.19567 16.71795,-1.35364 8.16022,-10.54933 15.57145,-27.81462 15.57145,-27.81462 0,0 -3.30172,35.52504 -15.48959,42.49968 -12.18788,6.97464 -16.79981,-13.33142 -16.79981,-13.33142 z"
       style="fill:#24820a;fill-opacity:1;stroke:none" />
    <use
       x="0"
       y="0"
       xlink:href="#use3949"
       id="use3951"
       transform="translate(56.617855,0)"
       width="877.5"
       height="885.4375" />
    <use
       x="0"
       y="0"
       xlink:href="#use3951"
       id="use3953"
       transform="matrix(1,0,0,0.96750155,55.667855,7.6702303)"
       width="877.5"
       height="885.4375" />
    <use
       x="0"
       y="0"
       xlink:href="#use3953"
       id="use3955"
       transform="translate(57.857139,1.5676801e-7)"
       width="877.5"
       height="885.4375" />
    <use
       x="0"
       y="0"
       xlink:href="#use3955"
       id="use3957"
       transform="translate(-228.28206,57.142856)"
       width="877.5"
       height="885.4375" />
    <use
       x="0"
       y="0"
       xlink:href="#use3957"
       id="use3959"
       transform="translate(58.139209,-4.9999957e-8)"
       width="877.5"
       height="885.4375" />
    <use
       x="0"
       y="0"
       xlink:href="#use3959"
       id="use3961"
       transform="translate(112.28571,-4.9999936e-8)"
       width="877.5"
       height="885.4375" />
    <path
       style="fill:#24820a;fill-opacity:1;stroke:none"
       d="m 632.80688,359.40247 c 0,0 8.55771,8.89682 16.71795,-1.30965 8.16022,-10.2065 15.57145,-26.91069 15.57145,-26.91069 0,0 -3.30172,34.37053 -15.48959,41.1185 -12.18788,6.74798 -16.79981,-12.89816 -16.79981,-12.89816 z"
       id="use3965"
       inkscape:connector-curvature="0"
       sodipodi:nodetypes="czczc" />
    <use
       x="0"
       y="0"
       xlink:href="#use3965"
       id="use3967"
       transform="translate(112.28571,0)"
       width="877.5"
       height="885.4375" />
    <use
       x="0"
       y="0"
       xlink:href="#use3967"
       id="use3969"
       transform="translate(57.857139,0)"
       width="877.5"
       height="885.4375" />
    <path
       style="fill:#24820a;fill-opacity:1;stroke:none"
       d="m 632.80688,421.65412 c 0,0 8.55771,8.89682 16.71795,-1.30965 8.16022,-10.2065 15.57145,-26.91069 15.57145,-26.91069 0,0 -3.30172,34.37053 -15.48959,41.11851 -12.18788,6.74797 -16.79981,-12.89817 -16.79981,-12.89817 z"
       id="use3971"
       inkscape:connector-curvature="0"
       sodipodi:nodetypes="czczc" />
    <use
       x="0"
       y="0"
       xlink:href="#use3971"
       id="use3973"
       transform="translate(56.617855,-1.9256972e-8)"
       width="877.5"
       height="885.4375" />
    <use
       x="0"
       y="0"
       xlink:href="#use3973"
       id="use3975"
       transform="translate(55.667855,0)"
       width="877.5"
       height="885.4375" />
    <use
       x="0"
       y="0"
       xlink:href="#use3975"
       id="use3977"
       transform="translate(57.857139,-1.9256962e-8)"
       width="877.5"
       height="885.4375" />
    <use
       x="0"
       y="0"
       xlink:href="#use3977"
       id="use3979"
       transform="translate(-228.28205,57.034055)"
       width="877.5"
       height="885.4375" />
    <use
       x="0"
       y="0"
       xlink:href="#use3979"
       id="use3981"
       transform="translate(4.3271211e-6,55.092154)"
       width="877.5"
       height="885.4375" />
    <use
       x="0"
       y="0"
       xlink:href="#use3981"
       id="use3983"
       transform="translate(114.75705,0)"
       width="877.5"
       height="885.4375" />
    <use
       x="0"
       y="0"
       xlink:href="#use3983"
       id="use3985"
       transform="translate(55.667862,0)"
       width="877.5"
       height="885.4375" />
    <use
       x="0"
       y="0"
       xlink:href="#use3985"
       id="use3987"
       transform="translate(57.857138,0)"
       width="877.5"
       height="885.4375" />
    <use
       x="0"
       y="0"
       xlink:href="#use3987"
       id="use3989"
       transform="translate(4.0000018e-7,-55.092153)"
       width="877.5"
       height="885.4375" />
    <use
       x="0"
       y="0"
       xlink:href="#use3989"
       id="use3991"
       transform="translate(-57.857136,-1.5000001e-7)"
       width="877.5"
       height="885.4375" />
    <use
       x="0"
       y="0"
       xlink:href="#use3991"
       id="use3993"
       transform="translate(-55.667859,0)"
       width="877.5"
       height="885.4375" />
    <text
       xml:space="preserve"
       style="font-size:40px;font-style:normal;font-weight:normal;line-height:125%;letter-spacing:0px;word-spacing:0px;fill:#000000;fill-opacity:1;stroke:none;font-family:Sans"
       x="580.15808"
       y="367.29065"
       id="text3995"
       sodipodi:linespacing="125%"><tspan
         sodipodi:role="line"
         id="tspan3997"
         x="580.15808"
         y="367.29065">?</tspan></text>
    <text
       xml:space="preserve"
       style="font-size:26.05506706px;font-style:normal;font-weight:normal;line-height:125%;letter-spacing:0px;word-spacing:0px;fill:#000000;fill-opacity:1;stroke:none;font-family:Sans"
       x="673.14136"
       y="-177.11339"
       id="text4009"
       sodipodi:linespacing="125%"
       transform="matrix(0.6421447,0.76658345,-0.76658345,0.6421447,0,0)"><tspan
         sodipodi:role="line"
         id="tspan4011"
         x="673.14136"
         y="-177.11339">MRI</tspan></text>
    <path
       style="fill:#820a0a;fill-opacity:0.8142857;stroke:none"
       d="m 689.14026,171.58367 9.28077,9.28077 -9.28077,9.28078 7.15945,7.15945 9.28078,-9.28077 9.28077,9.28077 7.13736,-7.13735 -9.28077,-9.28078 9.28077,-9.28078 -7.15945,-7.15945 -9.28078,9.28077 -9.28078,-9.28077 -7.13735,7.13736 z"
       id="rect4013"
       inkscape:connector-curvature="0" />
    <path
       inkscape:connector-curvature="0"
       id="path4024"
       d="m 689.14026,285.86938 9.28077,9.28077 -9.28077,9.28078 7.15945,7.15945 9.28078,-9.28077 9.28077,9.28077 7.13736,-7.13735 -9.28077,-9.28078 9.28077,-9.28078 -7.15945,-7.15945 -9.28078,9.28077 -9.28078,-9.28077 -7.13735,7.13736 z"
       style="fill:#820a0a;fill-opacity:0.8142857;stroke:none" />
    <path
       style="fill:#820a0a;fill-opacity:0.8142857;stroke:none"
       d="m 689.14026,345.15509 9.28077,9.28077 -9.28077,9.28078 7.15945,7.15945 9.28078,-9.28077 9.28077,9.28077 7.13736,-7.13735 -9.28077,-9.28078 9.28077,-9.28078 -7.15945,-7.15945 -9.28078,9.28077 -9.28078,-9.28077 -7.13735,7.13736 z"
       id="path4026"
       inkscape:connector-curvature="0" />
    <path
       inkscape:connector-curvature="0"
       id="path4028"
       d="m 632.52241,464.4408 9.28076,9.28077 -9.28076,9.28078 7.15945,7.15945 9.28078,-9.28077 9.28077,9.28077 7.13735,-7.13735 -9.28076,-9.28078 9.28076,-9.28078 -7.15945,-7.15945 -9.28078,9.28077 -9.28078,-9.28077 -7.13735,7.13736 z"
       style="fill:#820a0a;fill-opacity:0.8142857;stroke:none" />
    <path
       style="fill:#820a0a;fill-opacity:0.8142857;stroke:none"
       d="m 632.52241,519.53295 9.28077,9.28077 -9.28077,9.28078 7.15945,7.15945 9.28078,-9.28077 9.28077,9.28077 7.13736,-7.13735 -9.28077,-9.28078 9.28077,-9.28078 -7.15945,-7.15945 -9.28078,9.28077 -9.28078,-9.28077 -7.13735,7.13736 z"
       id="path4030"
       inkscape:connector-curvature="0" />
    <path
       inkscape:connector-curvature="0"
       id="path4032"
       d="m 802.66526,285.86938 9.28077,9.28077 -9.28077,9.28078 7.15945,7.15945 9.28078,-9.28077 9.28077,9.28077 7.13736,-7.13735 -9.28077,-9.28078 9.28077,-9.28078 -7.15945,-7.15945 -9.28078,9.28077 -9.28078,-9.28077 -7.13735,7.13736 z"
       style="fill:#820a0a;fill-opacity:0.8142857;stroke:none" />
    <text
       xml:space="preserve"
       style="font-size:10px;font-style:normal;font-weight:normal;line-height:125%;letter-spacing:0px;word-spacing:0px;fill:#000000;fill-opacity:0.24122811;stroke:none;font-family:Sans"
       x="514.72058"
       y="-916.87537"
       id="text3069"
       sodipodi:linespacing="125%"
       transform="matrix(0,1,-1,0,0,0)"><tspan
         sodipodi:role="line"
         id="tspan3071"
         x="514.72058"
         y="-916.87537">by Nicco Kunzmann</tspan></text>
    <use
       x="0"
       y="0"
       xlink:href="#rect4013"
       id="use3071"
       transform="translate(-114.75706,57.142851)"
       width="877.5"
       height="885.4375" />
  </g>
</svg>
