<?xml version="1.0" encoding="UTF-8" standalone="no"?>
<!-- Created with Inkscape (http://www.inkscape.org/) -->

<svg
   xmlns:dc="http://purl.org/dc/elements/1.1/"
   xmlns:cc="http://creativecommons.org/ns#"
   xmlns:rdf="http://www.w3.org/1999/02/22-rdf-syntax-ns#"
   xmlns:svg="http://www.w3.org/2000/svg"
   xmlns="http://www.w3.org/2000/svg"
   xmlns:sodipodi="http://sodipodi.sourceforge.net/DTD/sodipodi-0.dtd"
   xmlns:inkscape="http://www.inkscape.org/namespaces/inkscape"
   width="503.37454"
   height="442.23203"
   id="svg2"
   version="1.1"
   inkscape:version="0.48.4 r9939"
   sodipodi:docname="panda.svg"
   inkscape:export-filename="/home/nicco/Documents/maglev-wiki-pictures/panda.png"
   inkscape:export-xdpi="90"
   inkscape:export-ydpi="90">
  <defs
     id="defs4" />
  <sodipodi:namedview
     id="base"
     pagecolor="#ffffff"
     bordercolor="#666666"
     borderopacity="1.0"
     inkscape:pageopacity="0.0"
     inkscape:pageshadow="2"
     inkscape:zoom="0.7"
     inkscape:cx="239.62058"
     inkscape:cy="257.14901"
     inkscape:document-units="px"
     inkscape:current-layer="layer1"
     showgrid="false"
     inkscape:window-width="1920"
     inkscape:window-height="1021"
     inkscape:window-x="0"
     inkscape:window-y="27"
     inkscape:window-maximized="1"
     fit-margin-top="0"
     fit-margin-left="0"
     fit-margin-right="0"
     fit-margin-bottom="0" />
  <metadata
     id="metadata7">
    <rdf:RDF>
      <cc:Work
         rdf:about="">
        <dc:format>image/svg+xml</dc:format>
        <dc:type
           rdf:resource="http://purl.org/dc/dcmitype/StillImage" />
        <dc:title></dc:title>
      </cc:Work>
    </rdf:RDF>
  </metadata>
  <g
     inkscape:label="Layer 1"
     inkscape:groupmode="layer"
     id="layer1"
     transform="translate(-49.466516,-248.27017)">
    <path
       style="opacity:0.98000004;color:#000000;fill:#000000;fill-opacity:1;stroke:#000000;stroke-width:20;stroke-linecap:butt;stroke-linejoin:miter;stroke-miterlimit:4;stroke-opacity:1;stroke-dashoffset:0;marker:none;visibility:visible;display:inline;overflow:visible;enable-background:accumulate"
       d="m 528.76902,644.95381 c 0,64.15756 -103.23389,21.88183 -233.22268,21.88183 -129.9888,0 -236.079824,42.27573 -236.079824,-21.88183 0,-64.15757 103.948174,-50.45326 233.936974,-50.45326 129.98879,0 235.36553,-13.70431 235.36553,50.45326 z"
       id="path3886"
       inkscape:connector-curvature="0"
       sodipodi:nodetypes="sssss" />
    <path
       style="opacity:0.98000004;color:#000000;fill:#000000;fill-opacity:1;stroke:#000000;stroke-width:60;stroke-linecap:butt;stroke-linejoin:miter;stroke-miterlimit:4;stroke-opacity:1;stroke-dashoffset:0;marker:none;visibility:visible;display:inline;overflow:visible;enable-background:accumulate"
       d="m 165.7525,357.73983 c -18.31711,10.77268 -6.58689,-9.46226 -5.29122,9.51869 1.69073,24.76855 -63.732856,4.4479 -67.225723,-19.2858 -3.492867,-23.73371 13.586743,-45.90398 38.148363,-49.51869 24.56162,-3.61471 55.04686,47.12448 34.36858,59.2858 z"
       id="path3769"
       inkscape:connector-curvature="0"
       sodipodi:nodetypes="sssss" />
    <path
       sodipodi:nodetypes="sssss"
       inkscape:connector-curvature="0"
       id="path3881"
       d="m 449.871,337.73983 c 18.31711,10.77268 6.58689,-9.46226 5.29122,9.51869 -1.69073,24.76855 63.73285,4.4479 67.22572,-19.2858 3.49287,-23.73371 -13.58674,-45.90398 -38.14836,-49.51869 -24.56162,-3.61471 -55.04686,47.12448 -34.36858,59.2858 z"
       style="opacity:0.98000004;color:#000000;fill:#000000;fill-opacity:1;stroke:#000000;stroke-width:60;stroke-linecap:butt;stroke-linejoin:miter;stroke-miterlimit:4;stroke-opacity:1;stroke-dashoffset:0;marker:none;visibility:visible;display:inline;overflow:visible;enable-background:accumulate" />
    <path
       style="opacity:0.98000004;color:#000000;fill:#ffffff;fill-opacity:1;stroke:#ffffff;stroke-width:20;stroke-linecap:butt;stroke-linejoin:miter;stroke-miterlimit:4;stroke-opacity:1;stroke-dashoffset:0;marker:none;visibility:visible;display:inline;overflow:visible;enable-background:accumulate"
       d="M 512.31478,451.46589 C 543.11959,547.66518 415.94575,634.33536 297.06853,634.33536 178.1913,634.33536 52.769235,548.20691 81.822266,451.46589 108.65513,362.1176 178.1913,268.59643 297.06853,268.59643 c 118.87722,0 181.41351,77.21434 215.24625,182.86946 z"
       id="path3883"
       inkscape:connector-curvature="0"
       sodipodi:nodetypes="sssss" />
    <g
       id="g3780"
       transform="matrix(0.33549107,0,0,0.1443311,191.17267,446.18724)">
      <path
         transform="translate(22.223356,211.12188)"
         d="m 424.26405,585.67169 c 0,22.31568 -59.69841,40.4061 -133.34013,40.4061 -73.64172,0 -133.34013,-18.09042 -133.34013,-40.4061 0,-22.31567 59.69841,-40.4061 133.34013,-40.4061 73.64172,0 133.34013,18.09043 133.34013,40.4061 z"
         sodipodi:ry="40.406101"
         sodipodi:rx="133.34013"
         sodipodi:cy="585.67169"
         sodipodi:cx="290.92392"
         id="path3774"
         style="opacity:0.98000004;color:#000000;fill:none;stroke:#000000;stroke-width:272.66589355;stroke-linecap:butt;stroke-linejoin:miter;stroke-miterlimit:4;stroke-opacity:1;stroke-dasharray:none;stroke-dashoffset:0;marker:none;visibility:visible;display:inline;overflow:visible;enable-background:accumulate"
         sodipodi:type="arc" />
      <path
         sodipodi:type="arc"
         style="opacity:0.98000004;color:#000000;fill:none;stroke:#ffffff;stroke-width:272.66589355;stroke-linecap:butt;stroke-linejoin:miter;stroke-miterlimit:4;stroke-opacity:1;stroke-dasharray:none;stroke-dashoffset:0;marker:none;visibility:visible;display:inline;overflow:visible;enable-background:accumulate"
         id="path3776"
         sodipodi:cx="290.92392"
         sodipodi:cy="585.67169"
         sodipodi:rx="133.34013"
         sodipodi:ry="40.406101"
         d="m 424.26405,585.67169 c 0,22.31568 -59.69841,40.4061 -133.34013,40.4061 -73.64172,0 -133.34013,-18.09042 -133.34013,-40.4061 0,-22.31567 59.69841,-40.4061 133.34013,-40.4061 73.64172,0 133.34013,18.09043 133.34013,40.4061 z"
         transform="translate(22.223356,175.76654)" />
      <path
         transform="translate(21.213203,141.42135)"
         d="m 424.26405,585.67169 c 0,22.31568 -59.69841,40.4061 -133.34013,40.4061 -73.64172,0 -133.34013,-18.09042 -133.34013,-40.4061 0,-22.31567 59.69841,-40.4061 133.34013,-40.4061 73.64172,0 133.34013,18.09043 133.34013,40.4061 z"
         sodipodi:ry="40.406101"
         sodipodi:rx="133.34013"
         sodipodi:cy="585.67169"
         sodipodi:cx="290.92392"
         id="path3778"
         style="opacity:0.98000004;color:#000000;fill:none;stroke:#ffffff;stroke-width:272.66589355;stroke-linecap:butt;stroke-linejoin:miter;stroke-miterlimit:4;stroke-opacity:1;stroke-dasharray:none;stroke-dashoffset:0;marker:none;visibility:visible;display:inline;overflow:visible;enable-background:accumulate"
         sodipodi:type="arc" />
    </g>
    <path
       style="opacity:0.98000004;color:#000000;fill:none;stroke:#000000;stroke-width:20;stroke-linecap:butt;stroke-linejoin:miter;stroke-miterlimit:4;stroke-opacity:1;stroke-dasharray:none;stroke-dashoffset:0;marker:none;visibility:visible;display:inline;overflow:visible;enable-background:accumulate"
       d="m 337.09701,501.64004 c 0,-10.59995 -16.07012,4.04061 -38.3858,4.04061 -22.31567,0 -42.42641,-14.64056 -42.42641,-4.04061 0,10.59994 18.09043,19.19289 40.4061,19.19289 22.31568,0 40.40611,-8.59295 40.40611,-19.19289 z"
       id="path3762"
       inkscape:connector-curvature="0"
       sodipodi:nodetypes="sssss" />
    <path
       style="opacity:0.98000004;color:#000000;fill:#000000;fill-opacity:1;stroke:#000000;stroke-width:30;stroke-linecap:butt;stroke-linejoin:miter;stroke-miterlimit:4;stroke-opacity:1;stroke-dasharray:none;stroke-dashoffset:0;marker:none;visibility:visible;display:inline;overflow:visible;enable-background:accumulate"
       d="m 249.39134,400.40385 c -0.57519,34.54372 -15.93946,26.63844 -31.93627,42.1971 -15.97073,15.53328 -42.96698,29.6814 -48.64369,-1.60341 -4.1275,-22.74696 29.99079,-36.38023 34.48518,-47.5364 9.31041,-23.11067 46.50633,-17.77294 46.09478,6.94271 z"
       id="path2985"
       inkscape:connector-curvature="0"
       sodipodi:nodetypes="sssss" />
    <path
       sodipodi:nodetypes="sssss"
       inkscape:connector-curvature="0"
       id="path3879"
       d="m 344.32853,398.97527 c 0.57519,34.54372 15.93946,26.63844 31.93627,42.1971 15.97073,15.53328 42.96698,29.6814 48.64369,-1.60341 4.1275,-22.74696 -29.99079,-36.38023 -34.48518,-47.5364 -9.31041,-23.11067 -46.50633,-17.77294 -46.09478,6.94271 z"
       style="opacity:0.98000004;color:#000000;fill:#000000;fill-opacity:1;stroke:#000000;stroke-width:30;stroke-linecap:butt;stroke-linejoin:miter;stroke-miterlimit:4;stroke-opacity:1;stroke-dasharray:none;stroke-dashoffset:0;marker:none;visibility:visible;display:inline;overflow:visible;enable-background:accumulate" />
    <path
       sodipodi:nodetypes="zzz"
       inkscape:connector-curvature="0"
       id="path3901"
       d="m 242.87175,416.03295 c -5.45929,5.34375 -43.47515,23.08032 -36.37127,4.38439 7.10388,-18.69593 41.83056,-9.72814 36.37127,-4.38439 z"
       style="opacity:0.98000004;color:#000000;fill:#ffffff;fill-opacity:1;stroke:#ffffff;stroke-width:5;stroke-miterlimit:4;stroke-opacity:1;stroke-dasharray:none;marker:none;visibility:visible;display:inline;overflow:visible;enable-background:accumulate" />
    <path
       style="opacity:0.98000004;color:#000000;fill:#ffffff;fill-opacity:1;stroke:#ffffff;stroke-width:5;stroke-miterlimit:4;stroke-opacity:1;stroke-dasharray:none;marker:none;visibility:visible;display:inline;overflow:visible;enable-background:accumulate"
       d="m 355.55541,414.93182 c 5.1347,5.65636 42.03858,25.60366 36.04946,6.52138 -5.98912,-19.08228 -41.18416,-12.17774 -36.04946,-6.52138 z"
       id="path3920"
       inkscape:connector-curvature="0"
       sodipodi:nodetypes="zzz" />
    <path
       style="fill:none;stroke:#e50d0d;stroke-width:2.99999976;stroke-linecap:butt;stroke-linejoin:miter;stroke-miterlimit:4;stroke-opacity:1;stroke-dasharray:none"
       d="m 221.92209,571.64648 c 2.36773,0.83388 7.96653,11.12981 -1.86118,5.39524 -1.80028,-1.05048 -5.94464,-0.56897 -4.12096,-1.46667 12.68141,-7.2177 2.47687,-1.12366 6.37179,-0.95606 0.49869,0.0214 -2.39014,0.94516 -1.89144,0.96661 0.49868,0.0215 2.87981,0.8151 3.29293,1.178 0.41312,0.36291 1.54052,-1.32775 1.95364,-0.96485 4.13117,3.62907 8.26236,7.25814 12.39354,10.88721 0.45515,0.39983 4.87231,4.3512 4.95743,4.35489 0.49869,0.0215 0.37772,-1.01913 0.87641,-0.99767 0.4987,0.0215 0.7392,0.91285 1.23936,1.08872 0.70732,0.24872 1.40845,-0.15767 2.11577,0.091 0.50016,0.17587 0.74066,1.06726 1.23936,1.08872 1.11511,0.048 1.93624,-0.73803 2.99219,-0.90664 1.33567,-0.21326 2.96992,0.56436 4.23155,0.1821 0.44605,-0.13516 0.37772,-1.01914 0.87642,-0.99768 0.068,0.003 3.41748,3.00211 3.71806,3.26616 0.41311,0.3629 1.15381,0.59695 1.23935,1.08872 0.0855,0.49177 -0.96196,0.50591 -0.87642,0.99768 0.0855,0.49177 1.15382,0.59696 1.23935,1.08872 0.0856,0.49178 -0.96195,0.50592 -0.87642,0.99768 0.0856,0.49177 0.82624,0.72581 1.23937,1.08872 0.30057,0.26405 1.86425,-4.86169 4.34306,-1.82312 0.49869,0.0215 2.01285,-1.4687 2.30499,-1.80125"
       id="path3922"
       inkscape:connector-curvature="0"
       sodipodi:nodetypes="csccccssccscccccsccccccc" />
  </g>
</svg>
