<?xml version="1.0" encoding="UTF-8" standalone="no"?>
<!-- Created with Inkscape (http://www.inkscape.org/) -->

<svg
   xmlns:dc="http://purl.org/dc/elements/1.1/"
   xmlns:cc="http://creativecommons.org/ns#"
   xmlns:rdf="http://www.w3.org/1999/02/22-rdf-syntax-ns#"
   xmlns:svg="http://www.w3.org/2000/svg"
   xmlns="http://www.w3.org/2000/svg"
   xmlns:sodipodi="http://sodipodi.sourceforge.net/DTD/sodipodi-0.dtd"
   xmlns:inkscape="http://www.inkscape.org/namespaces/inkscape"
   width="503.37454"
   height="442.23203"
   id="svg2"
   version="1.1"
   inkscape:version="0.48.4 r9939"
   sodipodi:docname="panda.svg"
   inkscape:export-filename="/home/nicco/Documents/maglev-wiki-pictures/panda.png"
   inkscape:export-xdpi="90"
   inkscape:export-ydpi="90">
  <defs
     id="defs4" />
  <sodipodi:namedview
     id="base"
     pagecolor="#ffffff"
     bordercolor="#666666"
     borderopacity="1.0"
     inkscape:pageopacity="0.0"
     inkscape:pageshadow="2"
     inkscape:zoom="0.7"
     inkscape:cx="246.568"
     inkscape:cy="222.36252"
     inkscape:document-units="px"
     inkscape:current-layer="layer1"
     showgrid="false"
     inkscape:window-width="1920"
     inkscape:window-height="1021"
     inkscape:window-x="0"
     inkscape:window-y="27"
     inkscape:window-maximized="1"
     fit-margin-top="0"
     fit-margin-left="0"
     fit-margin-right="0"
     fit-margin-bottom="0" />
  <metadata
     id="metadata7">
    <rdf:RDF>
      <cc:Work
         rdf:about="">
        <dc:format>image/svg+xml</dc:format>
        <dc:type
           rdf:resource="http://purl.org/dc/dcmitype/StillImage" />
        <dc:title />
      </cc:Work>
    </rdf:RDF>
  </metadata>
  <g
     inkscape:label="Layer 1"
     inkscape:groupmode="layer"
     id="layer1"
     transform="translate(-49.466516,-248.27017)">
    <path
       style="font-size:medium;font-style:normal;font-variant:normal;font-weight:normal;font-stretch:normal;text-indent:0;text-align:start;text-decoration:none;line-height:normal;letter-spacing:normal;word-spacing:normal;text-transform:none;direction:ltr;block-progression:tb;writing-mode:lr-tb;text-anchor:start;baseline-shift:baseline;opacity:0.98000004;color:#000000;fill:#000000;fill-opacity:1;fill-rule:nonzero;stroke:none;stroke-width:20;marker:none;visibility:visible;display:inline;overflow:visible;enable-background:accumulate;font-family:Sans;-inkscape-font-specification:Sans"
       d="M 91.9375 336.21875 C 86.86304 336.55299 81.864294 336.92212 77.125 337.4375 C 55.24828 339.81685 36.83915 344.13848 22.78125 353.375 C 8.72335 362.61152 0 377.94777 0 396.6875 C 0 415.48289 9.875582 430.10565 24.71875 436.375 C 39.561918 442.64435 57.94271 442.96345 79.875 441.65625 C 123.73959 439.04185 182.15219 428.5625 246.0625 428.5625 C 309.97281 428.5625 367.67768 439.03979 410.84375 441.65625 C 432.42679 442.96448 450.47765 442.65842 465.09375 436.34375 C 479.70985 430.02908 489.3125 415.40867 489.3125 396.6875 C 489.3125 377.91066 480.43588 362.55955 466.25 353.34375 C 452.06412 344.12795 433.48551 339.81537 411.4375 337.4375 C 408.70675 337.14299 405.7474 336.98371 402.90625 336.75 C 400.09234 338.75763 397.41338 340.8432 394.46875 342.75 C 388.57434 346.56695 382.41983 350.17783 376.0625 353.5625 C 369.70517 356.94717 363.1453 360.11653 356.40625 363.03125 C 349.6672 365.94597 342.75833 368.62414 335.71875 371.03125 C 328.67917 373.43836 321.50893 375.57567 314.25 377.4375 C 306.99107 379.29933 299.64708 380.87736 292.25 382.15625 C 284.85292 383.43514 277.39155 384.40422 269.9375 385.0625 C 262.48345 385.72078 255.02358 386.0625 247.59375 386.0625 C 240.16392 386.0625 232.7229 385.71694 225.28125 385.0625 C 217.8396 384.40806 210.40609 383.45951 203.03125 382.1875 C 195.65641 380.91549 188.32317 379.32146 181.09375 377.46875 C 173.86433 375.61604 166.72412 373.49028 159.71875 371.09375 C 152.71338 368.69722 145.85895 366.02848 139.15625 363.125 C 132.45355 360.22152 125.91515 357.09231 119.59375 353.71875 C 113.27235 350.34519 107.17398 346.74426 101.3125 342.9375 C 98.042385 340.81371 95.045403 338.46843 91.9375 336.21875 z "
       id="path4072"
       transform="translate(49.466516,248.27017)" />
    <path
       style="font-size:medium;font-style:normal;font-variant:normal;font-weight:normal;font-stretch:normal;text-indent:0;text-align:start;text-decoration:none;line-height:normal;letter-spacing:normal;word-spacing:normal;text-transform:none;direction:ltr;block-progression:tb;writing-mode:lr-tb;text-anchor:start;baseline-shift:baseline;opacity:0.98000004;color:#000000;fill:#000000;fill-opacity:1;fill-rule:nonzero;stroke:none;stroke-width:60;marker:none;visibility:visible;display:inline;overflow:visible;enable-background:accumulate;font-family:Sans;-inkscape-font-specification:Sans"
       d="M 83.78125,19.96875 C 81.75432,20.01135 79.69088,20.18677 77.5625,20.5 37.501141,26.39579 8.15788,63.72881 14.09375,104.0625 c 2.747679,18.67022 13.965312,28.85903 24.09375,36.3125 4.98607,3.66923 10.202471,6.74954 15.5625,9.34375 19.390336,-38.17411 47.2231,-73.388719 84.09375,-97.40625 -5.22767,-7.531911 -11.57047,-14.3883 -19.4375,-20.21875 -8.77361,-6.50234 -20.4365,-12.42337 -34.625,-12.125 z"
       transform="translate(49.466516,248.27017)"
       id="path3769"
       inkscape:connector-curvature="0"
       sodipodi:nodetypes="csssccsc" />
    <path
       style="font-size:medium;font-style:normal;font-variant:normal;font-weight:normal;font-stretch:normal;text-indent:0;text-align:start;text-decoration:none;line-height:normal;letter-spacing:normal;word-spacing:normal;text-transform:none;direction:ltr;block-progression:tb;writing-mode:lr-tb;text-anchor:start;baseline-shift:baseline;opacity:0.98000004;color:#000000;fill:#000000;fill-opacity:1;fill-rule:nonzero;stroke:none;stroke-width:60;marker:none;visibility:visible;display:inline;overflow:visible;enable-background:accumulate;font-family:Sans;-inkscape-font-specification:Sans"
       d="M 432.90625 -0.03125 C 418.71775 -0.32962 407.05486 5.59141 398.28125 12.09375 C 388.25427 19.52499 380.70268 28.6105 374.78125 38.65625 C 371.6014 44.050886 368.90736 49.735559 366.90625 55.875 C 369.13056 57.45422 371.44312 58.921163 373.59375 60.59375 C 378.27305 64.232936 382.78465 68.061191 387.125 72.125 C 391.46535 76.188809 395.64136 80.472883 399.65625 84.9375 C 403.67114 89.402117 407.51582 94.06464 411.21875 98.90625 C 414.92168 103.74786 418.47054 108.77396 421.875 113.96875 C 425.27946 119.16354 428.53676 124.53835 431.65625 130.0625 C 433.25223 132.88874 434.69469 135.87351 436.21875 138.78125 C 439.48415 138.08243 442.72255 137.24117 445.9375 136.28125 C 457.34224 132.87602 468.37156 127.82847 478.5 120.375 C 488.62844 112.92153 499.84607 102.73272 502.59375 84.0625 C 508.52962 43.72881 479.18636 6.39579 439.125 0.5 C 436.99662 0.18677 434.93318 0.01137 432.90625 -0.03125 z "
       id="path3881"
       transform="translate(49.466516,248.27017)" />
    <path
       style="font-size:medium;font-style:normal;font-variant:normal;font-weight:normal;font-stretch:normal;text-indent:0;text-align:start;text-decoration:none;line-height:normal;letter-spacing:normal;word-spacing:normal;text-transform:none;direction:ltr;block-progression:tb;writing-mode:lr-tb;text-anchor:start;baseline-shift:baseline;opacity:0.98000004;color:#000000;fill:#000000;fill-opacity:1;stroke:none;stroke-width:60;marker:none;visibility:visible;display:inline;overflow:visible;enable-background:accumulate;font-family:Sans;-inkscape-font-specification:Sans"
       d="m 172.03125,312.90625 c 14.79497,26.96936 35.37521,32.81329 74.97129,32.81329 39.59608,0 60.67449,-9.55205 74.75,-35.84375 -17.19034,17.58142 -40.40811,28.9735 -74.60961,28.6569 -34.2015,-0.3166 -51.36426,-3.63395 -75.11168,-25.62644 z"
       transform="translate(49.466516,248.27017)"
       id="path3775"
       inkscape:connector-curvature="0"
       sodipodi:nodetypes="czczc" />
    <path
       style="opacity:0.98000004;color:#000000;fill:none;stroke:#000000;stroke-width:20;stroke-linecap:butt;stroke-linejoin:miter;stroke-miterlimit:4;stroke-opacity:1;stroke-dasharray:none;stroke-dashoffset:0;marker:none;visibility:visible;display:inline;overflow:visible;enable-background:accumulate"
       d="m 337.09701,501.64004 c 0,-10.59995 -16.07012,4.04061 -38.3858,4.04061 -22.31567,0 -42.42641,-14.64056 -42.42641,-4.04061 0,10.59994 18.09043,19.19289 40.4061,19.19289 22.31568,0 40.40611,-8.59295 40.40611,-19.19289 z"
       id="path3762"
       inkscape:connector-curvature="0"
       sodipodi:nodetypes="sssss" />
    <path
       style="opacity:0.98000004;color:#000000;fill:#000000;fill-opacity:1;stroke:#000000;stroke-width:30;stroke-linecap:butt;stroke-linejoin:miter;stroke-miterlimit:4;stroke-opacity:1;stroke-dasharray:none;stroke-dashoffset:0;marker:none;visibility:visible;display:inline;overflow:visible;enable-background:accumulate"
       d="m 249.39134,400.40385 c -0.57519,34.54372 -15.93946,26.63844 -31.93627,42.1971 -15.97073,15.53328 -42.96698,29.6814 -48.64369,-1.60341 -4.1275,-22.74696 29.99079,-36.38023 34.48518,-47.5364 9.31041,-23.11067 46.50633,-17.77294 46.09478,6.94271 z"
       id="path2985"
       inkscape:connector-curvature="0"
       sodipodi:nodetypes="sssss" />
    <path
       sodipodi:nodetypes="sssss"
       inkscape:connector-curvature="0"
       id="path3879"
       d="m 344.32853,398.97527 c 0.57519,34.54372 15.93946,26.63844 31.93627,42.1971 15.97073,15.53328 42.96698,29.6814 48.64369,-1.60341 4.1275,-22.74696 -29.99079,-36.38023 -34.48518,-47.5364 -9.31041,-23.11067 -46.50633,-17.77294 -46.09478,6.94271 z"
       style="opacity:0.98000004;color:#000000;fill:#000000;fill-opacity:1;stroke:#000000;stroke-width:30;stroke-linecap:butt;stroke-linejoin:miter;stroke-miterlimit:4;stroke-opacity:1;stroke-dasharray:none;stroke-dashoffset:0;marker:none;visibility:visible;display:inline;overflow:visible;enable-background:accumulate" />
    <path
       sodipodi:nodetypes="zzz"
       inkscape:connector-curvature="0"
       id="path3901"
       d="m 242.87175,416.03295 c -5.45929,5.34375 -43.47515,23.08032 -36.37127,4.38439 7.10388,-18.69593 41.83056,-9.72814 36.37127,-4.38439 z"
       style="opacity:0.98000004;color:#000000;fill:#ffffff;fill-opacity:1;stroke:#ffffff;stroke-width:5;stroke-miterlimit:4;stroke-opacity:1;stroke-dasharray:none;marker:none;visibility:visible;display:inline;overflow:visible;enable-background:accumulate" />
    <path
       style="opacity:0.98000004;color:#000000;fill:#ffffff;fill-opacity:1;stroke:#ffffff;stroke-width:5;stroke-miterlimit:4;stroke-opacity:1;stroke-dasharray:none;marker:none;visibility:visible;display:inline;overflow:visible;enable-background:accumulate"
       d="m 355.55541,414.93182 c 5.1347,5.65636 42.03858,25.60366 36.04946,6.52138 -5.98912,-19.08228 -41.18416,-12.17774 -36.04946,-6.52138 z"
       id="path3920"
       inkscape:connector-curvature="0"
       sodipodi:nodetypes="zzz" />
  </g>
</svg>
